<?xml version="1.0" encoding="utf-8"?>
<!-- Generator: Adobe Illustrator 15.1.0, SVG Export Plug-In . SVG Version: 6.00 Build 0)  -->
<!DOCTYPE svg PUBLIC "-//W3C//DTD SVG 1.1//EN" "http://www.w3.org/Graphics/SVG/1.1/DTD/svg11.dtd">
<svg version="1.1" id="Capa_1" xmlns="http://www.w3.org/2000/svg" xmlns:xlink="http://www.w3.org/1999/xlink" x="0px" y="0px"
	 width="320.667px" height="111.333px" viewBox="0 0 320.667 111.333" enable-background="new 0 0 320.667 111.333"
	 xml:space="preserve">
<g>
	<path d="M180.21,84.033V71.521c0-3.504-1.398-5.423-2.426-6.822c-0.832-1.14-1.289-1.764-1.289-3.341
		c0-1.585,0.457-2.213,1.292-3.352c1.024-1.401,2.423-3.322,2.423-6.824c0-8.076-5.227-12.543-8.37-15.216V25.534
		c0,0,0.557-3.907-4.398-3.907h-18.678c-4.955,0-4.395,3.907-4.395,3.907v10.429c-3.148,2.673-8.377,7.138-8.377,15.219
		c0,3.502,1.401,5.423,2.426,6.824c0.835,1.139,1.292,1.767,1.292,3.352c0,1.577-0.458,2.201-1.289,3.341
		c-1.028,1.399-2.429,3.318-2.429,6.822v12.516c-0.082,0.918-0.13,3.774,1.93,6.151c1.747,2.014,4.395,3.035,7.87,3.035h24.626
		c3.477,0,6.123-1.021,7.871-3.035C180.345,87.811,180.292,84.954,180.21,84.033z M165.107,88.282l-17.534-19.779h9.74
		l-6.437-10.063h12.385l5.178,15.842h-6.984L165.107,88.282z M141.89,51.182c0-5.373,3.508-8.353,6.325-10.747
		c1.021-0.866,1.969-1.673,2.662-2.559h14.453c0.689,0.886,1.641,1.692,2.662,2.559c2.816,2.395,6.324,5.374,6.324,10.747H141.89z"
		/>
	<path d="M152.553,16.937h11.103v-6.601c0,0,0.227-1.577-1.778-1.577h-7.554c-2,0-1.771,1.577-1.771,1.577V16.937z"/>
</g>
<text transform="matrix(1 0 0 1 8.0112 90.8037)" font-family="'Dosis-Medium'" font-size="64.8737">GoTo</text>
<text transform="matrix(1 0 0 1 189.8042 90.8037)" font-family="'Dosis-ExtraBold'" font-size="64.8737">Gym</text>
</svg>
