<?xml version="1.0" encoding="utf-8"?>
<!-- Generator: Adobe Illustrator 15.1.0, SVG Export Plug-In . SVG Version: 6.00 Build 0)  -->
<!DOCTYPE svg PUBLIC "-//W3C//DTD SVG 1.1//EN" "http://www.w3.org/Graphics/SVG/1.1/DTD/svg11.dtd">
<svg version="1.1" id="Capa_1" xmlns="http://www.w3.org/2000/svg" xmlns:xlink="http://www.w3.org/1999/xlink" x="0px" y="0px"
	 width="320.666px" height="111.333px" viewBox="0 0 320.666 111.333" enable-background="new 0 0 320.666 111.333"
	 xml:space="preserve">
<g>
	<path d="M180.21,84.034V71.521c0-3.504-1.398-5.423-2.426-6.821c-0.832-1.141-1.289-1.765-1.289-3.342
		c0-1.585,0.457-2.213,1.292-3.352c1.023-1.401,2.423-3.322,2.423-6.824c0-8.076-5.228-12.543-8.37-15.216V25.534
		c0,0,0.557-3.907-4.398-3.907h-18.678c-4.955,0-4.395,3.907-4.395,3.907v10.429c-3.148,2.673-8.377,7.138-8.377,15.219
		c0,3.502,1.4,5.423,2.426,6.824c0.835,1.139,1.292,1.767,1.292,3.352c0,1.577-0.458,2.201-1.289,3.342
		c-1.028,1.398-2.429,3.317-2.429,6.821v12.517c-0.082,0.918-0.131,3.773,1.93,6.15c1.747,2.014,4.395,3.035,7.87,3.035h24.626
		c3.477,0,6.123-1.021,7.871-3.035C180.345,87.811,180.292,84.954,180.21,84.034z M165.107,88.282l-17.534-19.779h9.74
		l-6.437-10.062h12.385l5.178,15.842h-6.983L165.107,88.282z M141.89,51.182c0-5.373,3.508-8.353,6.325-10.747
		c1.021-0.866,1.969-1.673,2.662-2.559h14.453c0.688,0.886,1.641,1.692,2.662,2.559c2.815,2.395,6.323,5.374,6.323,10.747H141.89z"
		/>
	<path d="M152.553,16.937h11.103v-6.601c0,0,0.228-1.577-1.777-1.577h-7.554c-2,0-1.771,1.577-1.771,1.577V16.937z"/>
</g>
<g enable-background="new    ">
	<path d="M12.163,77.051V57.524c0-4.887,1.265-8.466,3.795-10.736c2.53-2.271,5.871-3.406,10.023-3.406
		c4.238,0,7.655,1.07,10.25,3.211c2.595,2.142,3.892,4.942,3.892,8.401c0,0.996-0.227,1.687-0.681,2.076s-1.135,0.584-2.043,0.584
		c-1.774,0-2.682-0.627-2.725-1.882c-0.562-4.973-3.417-7.46-8.563-7.46c-5.666,0-8.499,3.071-8.499,9.212v19.527
		c0,6.142,2.833,9.212,8.499,9.212c2.725,0,4.833-0.768,6.325-2.303s2.238-3.838,2.238-6.909v-6.617h-7.72
		c-0.606,0-1.071-0.228-1.395-0.682s-0.486-0.983-0.486-1.589s0.172-1.136,0.519-1.59c0.346-0.454,0.8-0.681,1.363-0.681h11.288
		c0.605,0,1.071,0.194,1.395,0.583c0.324,0.39,0.486,0.866,0.486,1.428v9.147c0,4.888-1.276,8.466-3.827,10.736
		c-2.553,2.271-5.947,3.406-10.186,3.406c-4.239,0-7.623-1.136-10.152-3.406C13.428,85.517,12.163,81.939,12.163,77.051z"/>
	<path d="M46.221,78.738v-6.617c0-3.33,1.265-6.238,3.795-8.726c2.53-2.486,5.524-3.73,8.985-3.73c3.459,0,6.465,1.232,9.018,3.698
		c2.551,2.465,3.828,5.385,3.828,8.758v6.617c0,3.287-1.288,6.206-3.86,8.758c-2.574,2.553-5.569,3.827-8.985,3.827
		c-3.417,0-6.401-1.265-8.953-3.795C47.496,84.998,46.221,82.069,46.221,78.738z M51.606,78.718c0,2.021,0.735,3.806,2.206,5.354
		c1.47,1.548,3.2,2.321,5.19,2.321c2.032,0,3.784-0.785,5.255-2.354c1.47-1.569,2.206-3.343,2.206-5.321v-6.577
		c0-1.935-0.736-3.676-2.206-5.224c-1.471-1.548-3.223-2.322-5.255-2.322c-2.033,0-3.774,0.774-5.222,2.322
		c-1.45,1.548-2.173,3.289-2.173,5.224V78.718z"/>
	<path d="M69.446,45.784c0-0.633,0.172-1.19,0.519-1.676c0.346-0.484,0.821-0.727,1.427-0.727h26.404
		c0.605,0,1.081,0.242,1.427,0.727c0.345,0.485,0.519,1.043,0.519,1.676c0,0.674-0.173,1.265-0.519,1.771
		c-0.347,0.505-0.822,0.758-1.427,0.758H87.351v40.54c0,0.608-0.271,1.086-0.811,1.433c-0.541,0.347-1.179,0.52-1.914,0.52
		c-0.736,0-1.374-0.173-1.914-0.52c-0.541-0.347-0.811-0.824-0.811-1.433v-40.54h-10.51c-0.606,0-1.082-0.242-1.427-0.727
		C69.618,47.101,69.446,46.5,69.446,45.784z"/>
	<path d="M97.406,78.738v-6.617c0-3.33,1.265-6.238,3.795-8.726c2.53-2.486,5.524-3.73,8.985-3.73c3.459,0,6.465,1.232,9.018,3.698
		c2.551,2.465,3.828,5.385,3.828,8.758v6.617c0,3.287-1.288,6.206-3.86,8.758c-2.574,2.553-5.569,3.827-8.985,3.827
		c-3.417,0-6.401-1.265-8.953-3.795C98.681,84.998,97.406,82.069,97.406,78.738z M102.791,78.718c0,2.021,0.735,3.806,2.206,5.354
		c1.47,1.548,3.2,2.321,5.19,2.321c2.032,0,3.784-0.785,5.255-2.354c1.47-1.569,2.206-3.343,2.206-5.321v-6.577
		c0-1.935-0.736-3.676-2.206-5.224c-1.471-1.548-3.223-2.322-5.255-2.322c-2.033,0-3.774,0.774-5.222,2.322
		c-1.45,1.548-2.173,3.289-2.173,5.224V78.718z"/>
</g>
<g enable-background="new    ">
	<path d="M192.788,75.883V58.692c0-5.276,1.438-9.147,4.314-11.612c2.875-2.466,6.627-3.698,11.255-3.698
		c4.757,0,8.661,1.146,11.71,3.438c3.049,2.293,4.574,5.449,4.574,9.472c0,1.86-0.391,3.125-1.168,3.795
		c-0.779,0.671-2.076,1.006-3.893,1.006c-3.331,0-5.018-1.016-5.061-3.049c0-0.605-0.022-1.113-0.064-1.525
		c-0.044-0.41-0.174-0.918-0.39-1.524c-0.217-0.604-0.519-1.08-0.908-1.427c-0.39-0.346-0.963-0.659-1.72-0.94
		c-0.756-0.281-1.654-0.422-2.691-0.422c-3.893,0-5.839,2.163-5.839,6.487v17.191c0,4.325,1.924,6.487,5.774,6.487
		c3.892,0,5.838-2.162,5.838-6.487v-2.206h-3.828c-0.951,0-1.697-0.378-2.237-1.135c-0.542-0.757-0.812-1.676-0.812-2.758
		c0-0.994,0.281-1.891,0.844-2.691c0.562-0.8,1.297-1.2,2.205-1.2h10.899c0.95,0,1.696,0.313,2.238,0.94
		c0.54,0.627,0.812,1.373,0.812,2.238v6.812c0,5.277-1.45,9.147-4.348,11.612s-6.769,3.698-11.611,3.698
		c-4.801,0-8.651-1.233-11.549-3.698S192.788,81.161,192.788,75.883z"/>
	<path d="M227.041,100.403c0-2.896,0.821-4.344,2.466-4.344c6.141,0,9.211-2.739,9.211-8.217l-11.353-22.338
		c-0.217-0.428-0.324-0.856-0.324-1.284c0-1.198,0.778-2.289,2.335-3.273c1.558-0.984,3.049-1.477,4.477-1.477
		s2.357,0.535,2.789,1.604l7.332,17.396l5.384-17.396c0.433-1.069,1.298-1.604,2.595-1.604c1.34,0,2.832,0.503,4.477,1.508
		c1.643,1.006,2.465,2.151,2.465,3.435c0,0.434-0.087,0.802-0.26,1.104l-9.211,22.995c-0.217,0.606-0.606,1.624-1.168,3.054
		l-1.168,2.987c-0.217,0.649-0.616,1.548-1.2,2.695s-1.125,2.002-1.622,2.567c-0.498,0.562-1.179,1.233-2.043,2.014
		c-0.865,0.778-1.774,1.341-2.725,1.688c-0.952,0.346-2.099,0.659-3.438,0.942c-1.341,0.28-2.812,0.421-4.411,0.421
		c-1.515,0-2.66-0.295-3.439-0.882C227.431,103.411,227.041,102.211,227.041,100.403z"/>
	<path d="M262.073,87.69V62.973c0-0.908,0.464-1.643,1.395-2.205c0.93-0.562,2.13-0.844,3.601-0.844
		c1.211,0,2.248,0.284,3.113,0.851s1.299,1.308,1.299,2.223v1.505c1.858-3.312,4.713-4.968,8.562-4.968
		c1.729,0,3.276,0.6,4.639,1.798s2.367,2.777,3.017,4.737c1.081-2.135,2.486-3.758,4.217-4.868c1.729-1.111,3.567-1.667,5.515-1.667
		c3.243,0,6.021,1.233,8.336,3.698c2.312,2.465,3.471,5.773,3.471,9.926V87.69c0,0.778-0.498,1.492-1.492,2.142
		c-0.995,0.648-2.185,0.973-3.568,0.973c-1.297,0-2.455-0.323-3.471-0.97c-1.016-0.647-1.524-1.358-1.524-2.135v-14.49
		c0-1.552-0.433-2.76-1.298-3.622s-1.881-1.294-3.049-1.294c-1.125,0-2.098,0.432-2.919,1.294c-0.822,0.862-1.232,2.07-1.232,3.622
		v14.555c0,0.991-0.498,1.747-1.492,2.264c-0.995,0.518-2.185,0.776-3.568,0.776c-1.298,0-2.455-0.259-3.471-0.776
		c-1.017-0.517-1.524-1.272-1.524-2.264v-14.49c0-1.509-0.443-2.706-1.33-3.59s-1.914-1.326-3.081-1.326
		c-1.126,0-2.087,0.421-2.888,1.262c-0.801,0.842-1.199,2.038-1.199,3.59V87.7c0,0.776-0.51,1.487-1.525,2.135
		c-1.016,0.646-2.195,0.97-3.535,0.97c-1.428,0-2.617-0.313-3.568-0.94S262.073,88.512,262.073,87.69z"/>
</g>
</svg>
